# This file uses centimeters as units for non-parametric coordinates.

mtllib grass.mtl
g default
v -20.000000 0.000000 -0.000000
v 20.000000 0.000000 -0.000000
v -20.000000 30.000000 0.000000
v 20.000000 30.000000 0.000000
v -0.000000 0.000000 20.000000
v 0.000000 0.000000 -20.000000
v -0.000000 30.000000 20.000000
v 0.000000 30.000000 -20.000000
vt 0.000000 0.000000
vt 1.000000 0.000000
vt 0.000000 0.750000
vt 1.000000 0.750000
vt 1.000000 0.000000
vt 1.000000 0.750000
vt 0.000000 0.750000
vt 0.000000 0.000000
vn 0.000000 -0.000000 1.000000
vn 0.000000 -0.000000 1.000000
vn 0.000000 -0.000000 1.000000
vn 0.000000 -0.000000 1.000000
vn 1.000000 0.000000 0.000000
vn 1.000000 0.000000 0.000000
vn 1.000000 0.000000 0.000000
vn 1.000000 0.000000 0.000000
s off
g pPlane3
usemtl lambert2SG
f 2/2/1 4/4/2 3/3/3 1/1/4
f 6/5/5 8/6/6 7/7/7 5/8/8
